<?xml version="1.0" encoding="UTF-8"?>
<!DOCTYPE svg PUBLIC "-//W3C//DTD SVG 1.1//EN" "http://www.w3.org/Graphics/SVG/1.1/DTD/svg11.dtd">
<svg version="1.1" xmlns="http://www.w3.org/2000/svg" xmlns:xlink="http://www.w3.org/1999/xlink" x="0px" y="0px" width="48" height="48" viewBox="0, 0, 100, 100">
  <g id="Layer 1">
    <text transform="matrix(1, 0, 0, 1, 15.619, 50)">
      <tspan x="-7.877" y="7.5" font-family="Baskerville" font-size="24" fill="#000000">B</tspan>
    </text>
    <text transform="matrix(1, 0, 0, 1, 25.873, 50)">
      <tspan x="-3.377" y="7.5" font-family="Baskerville" font-size="24" fill="#F2F2F2">l</tspan>
    </text>
    <text transform="matrix(1, 0, 0, 1, 34.375, 50)">
      <tspan x="-6.125" y="7.5" font-family="Baskerville" font-size="24" fill="#000000">a</tspan>
    </text>
    <text transform="matrix(1, 0, 0, 1, 45.127, 50)">
      <tspan x="-5.627" y="7.5" font-family="Baskerville" font-size="24" fill="#F2F2F2">c</tspan>
    </text>
    <text transform="matrix(1, 0, 0, 1, 55.756, 50)">
      <tspan x="-6.002" y="7.5" font-family="Baskerville" font-size="24" fill="#000000">k</tspan>
    </text>
    <text transform="matrix(1, 0, 0, 1, 67.258, 50)">
      <tspan x="-6.5" y="7.5" font-family="Baskerville" font-size="24" fill="#F2F2F2">o</tspan>
    </text>
    <text transform="matrix(1, 0, 0, 1, 79.51, 50)">
      <tspan x="-6.752" y="7.5" font-family="Baskerville" font-size="24" fill="#000000">u</tspan>
    </text>
    <text transform="matrix(1, 0, 0, 1, 89.26, 50)">
      <tspan x="-3.998" y="7.5" font-family="Baskerville" font-size="24" fill="#F2F2F2">t</tspan>
    </text>
  </g>
  <defs/>
</svg>
