<?xml version="1.0" encoding="utf-8"?>
<!-- Generator: Adobe Illustrator 15.0.0, SVG Export Plug-In . SVG Version: 6.00 Build 0)  -->
<!DOCTYPE svg PUBLIC "-//W3C//DTD SVG 1.1//EN" "http://www.w3.org/Graphics/SVG/1.1/DTD/svg11.dtd">
<svg version="1.1" id="Layer_1" xmlns="http://www.w3.org/2000/svg" xmlns:xlink="http://www.w3.org/1999/xlink" x="0px" y="0px"
	 width="48px" height="23px" viewBox="0 0 48 23" enable-background="new 0 0 48 23" xml:space="preserve">
<path fill="#FFFFFF" d="M32.825,11.95l-2.423,0.098c0.003,0.077,0.003,0.155,0.003,0.233c0,0.5-0.068,1.002-0.206,1.491
	c-0.706,2.511-3.103,4.265-5.829,4.265c-0.525,0-1.053-0.067-1.567-0.198c-2.635-0.673-4.477-2.955-4.477-5.55
	c0-0.5,0.071-1.002,0.209-1.492C19.209,8.4,22,6.712,24,6.562v1.77l5.433-2.986L24,2.358v1.88c-3,0.151-6.85,2.555-7.808,5.961
	C16,10.883,15.9,11.586,15.9,12.288c0,3.639,2.581,6.836,6.275,7.78c0.718,0.183,1.457,0.276,2.194,0.276
	c3.821,0,7.184-2.457,8.172-5.976c0.192-0.685,0.289-1.388,0.289-2.088C32.831,12.169,32.829,12.059,32.825,11.95z"/>
</svg>
